<?xml version="1.0" encoding="utf-8"?>
<!-- Generator: Adobe Illustrator 19.1.0, SVG Export Plug-In . SVG Version: 6.00 Build 0)  -->
<svg version="1.1"
	 id="svg2" sodipodi:version="0.32" sodipodi:docname="Baseball_diamond_clean.svg" inkscape:version="0.44.1" sodipodi:docbase="/home/cburnett/images/wikipedia" xmlns:inkscape="http://www.inkscape.org/namespaces/inkscape" xmlns:sodipodi="http://sodipodi.sourceforge.net/DTD/sodipodi-0.dtd" xmlns:cc="http://web.resource.org/cc/" xmlns:rdf="http://www.w3.org/1999/02/22-rdf-syntax-ns#" xmlns:dc="http://purl.org/dc/elements/1.1/" xmlns:svg="http://www.w3.org/2000/svg"
	 xmlns="http://www.w3.org/2000/svg" xmlns:xlink="http://www.w3.org/1999/xlink" x="0px" y="0px" viewBox="19 147 650 500"
	 style="enable-background:new 19 147 650 500;" xml:space="preserve">
<style type="text/css">
	.st0{fill:#00A831;}
	.st1{fill:#A48E28;stroke:#85881B;stroke-width:2;stroke-linejoin:bevel;}
	.st2{fill:#00A837;stroke:#85881B;stroke-width:2;}
	.st3{fill:#85881B;}
	.st4{fill:#B56700;stroke:#85881B;stroke-width:2;stroke-linecap:round;stroke-linejoin:round;}
	.st5{fill:none;stroke:#FFFFFF;stroke-width:2;stroke-linecap:square;}
	.st6{fill:none;stroke:#FFFFFF;stroke-width:2;}
	.st7{fill:#FFFFFF;}
	.st8{fill:#85881B;stroke:#FFFFFF;stroke-width:2;}
	.st9{fill:#00A83B;stroke:#FFFFFF;stroke-width:2;}
</style>
<g id="layer1" inkscape:groupmode="layer" inkscape:label="Layer 1">
	<path id="path2807" sodipodi:nodetypes="ccccccc" class="st0" d="M169,647H19V147h650v500H527H169z"/>
	
		<path id="path1874" sodipodi:ry="95" sodipodi:start="3.1415927" sodipodi:end="6.2831853" sodipodi:open="true" sodipodi:type="arc" sodipodi:cx="300" sodipodi:rx="95" sodipodi:cy="752.36218" class="st1" d="
		M158.5,465.4c0-103.8,84.6-187.9,189-187.9s189,84.1,189,187.9"/>
	<path id="path2795" class="st0" d="M347.5,586.5l210-210v210H347.5z"/>
	<path id="path2793" class="st0" d="M347.5,586.5l-204-204l-1,204H347.5z"/>
	
		<rect id="rect2765" x="263.3" y="382.3" transform="matrix(-0.7071 0.7071 -0.7071 -0.7071 923.0741 550.6171)" class="st2" width="168.3" height="168.3"/>
	<path id="path2816" sodipodi:ry="43" sodipodi:type="arc" sodipodi:cx="328" sodipodi:rx="43" sodipodi:cy="430" class="st3" d="
		M390,577c0,23.7-19.3,43-43,43s-43-19.3-43-43s19.3-43,43-43S390,553.3,390,577z"/>
	
		<path id="path1876" sodipodi:ry="18" sodipodi:type="arc" sodipodi:cx="300" sodipodi:rx="18" sodipodi:cy="752.36218" class="st4" d="
		M365.5,466.5c0,9.9-8.1,18-18,18s-18-8.1-18-18l0,0c0-9.9,8.1-18,18-18S365.5,456.5,365.5,466.5z"/>
	<path id="path2789" class="st5" d="M382,552c287.4-287.4,287.4-287.4,287.4-287.4"/>
	<path id="path2791" class="st6" d="M312.8,552C16.9,256.1,16.9,256.1,16.9,256.1"/>
	
		<rect id="rect2799" x="227.6" y="457.6" transform="matrix(-0.7071 -0.7071 0.7071 -0.7071 70.1204 954.4956)" class="st7" width="10.2" height="10.2"/>
	
		<rect id="rect2801" x="457.1" y="457.6" transform="matrix(-0.7071 -0.7071 0.7071 -0.7071 461.9266 1116.7871)" class="st7" width="10.2" height="10.2"/>
	
		<rect id="rect2803" x="342.6" y="342.6" transform="matrix(-0.7071 -0.7071 0.7071 -0.7071 347.755 839.4956)" class="st7" width="10.2" height="10.2"/>
	<rect id="rect2805" x="340.5" y="464.5" class="st7" width="14" height="4"/>
	<path id="rect2809" sodipodi:nodetypes="cccccc" class="st7" d="M339,570h15v7.7l-7.3,7.3l-7.7-8.2V570z"/>
	<rect id="rect2812" x="359" y="557" class="st8" width="15" height="35"/>
	<rect id="rect2814" x="319" y="557" class="st8" width="15" height="35"/>
	<rect id="rect2820" x="338.9" y="589.5" class="st8" width="15.2" height="25"/>
	
		<rect id="rect3044" x="204.4" y="472.1" transform="matrix(-0.7071 0.7071 -0.7071 -0.7071 700.1067 679.2578)" class="st9" width="10" height="25"/>
	
		<rect id="rect3050" x="481.1" y="472.4" transform="matrix(0.7071 0.7071 -0.7071 0.7071 485.241 -201.7264)" class="st9" width="10" height="25"/>
	
		<path id="path3068" sodipodi:ry="12.5" sodipodi:type="arc" sodipodi:cx="222.5" sodipodi:rx="12.5" sodipodi:cy="457.5" class="st9" d="
		M254,604.5c0,6.9-5.6,12.5-12.5,12.5s-12.5-5.6-12.5-12.5s5.6-12.5,12.5-12.5S254,597.6,254,604.5z"/>
	
		<path id="path3074" sodipodi:ry="12.5" sodipodi:type="arc" sodipodi:cx="222.5" sodipodi:rx="12.5" sodipodi:cy="457.5" class="st9" d="
		M463.5,605c0,6.9-5.6,12.5-12.5,12.5s-12.5-5.6-12.5-12.5s5.6-12.5,12.5-12.5S463.5,598.1,463.5,605z"/>
	<path id="path3120" sodipodi:nodetypes="ccsscccccccssc" class="st7" d="M314,552c0.2-2.3-1.8-1-2.7-1.5
		c-11.7,15.7-11.9,36.2-0.7,52.2c14.2,20.1,42,24.9,62,10.7s24.9-42,10.7-62L380,552c1.7,2.4,0,0,1.7,2.4l-68.8-0.8L314,552z
		 M312.9,553.5l68.8,0.8c12.1,18.6,7.6,43.6-10.7,56.5c-18.7,13.2-44.6,8.8-57.8-10C302.8,586.4,302.8,568.1,312.9,553.5z"/>
</g>
</svg>
