<?xml version="1.0" encoding="UTF-8" standalone="no"?>
<svg
   xmlns:dc="http://purl.org/dc/elements/1.1/"
   xmlns:cc="http://creativecommons.org/ns#"
   xmlns:rdf="http://www.w3.org/1999/02/22-rdf-syntax-ns#"
   xmlns:svg="http://www.w3.org/2000/svg"
   xmlns="http://www.w3.org/2000/svg"
   xml:space="preserve"
   style="enable-background:new -240 129.3 361 338;"
   viewBox="-240 129.3 361 338"
   y="0px"
   x="0px"
   id="svg23341"
   version="1.1"><metadata
     id="metadata30"><rdf:RDF><cc:Work
         rdf:about=""><dc:format>image/svg+xml</dc:format><dc:type
           rdf:resource="http://purl.org/dc/dcmitype/StillImage" /><dc:title></dc:title></cc:Work></rdf:RDF></metadata><defs
     id="defs28" /><style
     id="style3"
     type="text/css">
	.st0{fill:#BA7300;stroke:#000000;stroke-miterlimit:10;}
	.st1{fill:none;stroke:#000000;stroke-miterlimit:7;}
	.st2{fill:none;stroke:#000000;stroke-miterlimit:7;stroke-dasharray:9.5674,19.1349;}
	.st3{fill:none;stroke:#FFFFFF;stroke-miterlimit:7;}
	.st4{fill:none;stroke:#000000;stroke-dasharray:0.7973,0.7973;}
</style><g
     transform="translate(-169.05157,-85.737642)"
     id="g4960"><rect
       height="337.5"
       width="361"
       class="st0"
       y="215.2"
       x="-70.9"
       id="rect1881" /><path
       d="M66.1,215.4h86.7c0,24-19.4,43.4-43.3,43.4C85.5,258.8,66.1,239.4,66.1,215.4L66.1,215.4z"
       class="st1"
       id="path6321" /><path
       d="M259.9,552.7c0,0,0,0,0-38.6c0-83.2-67.3-150.6-150.4-150.6S-40.9,431-40.9,514.1   c0,38.6,0,38.6,0,38.6"
       class="st1"
       id="path24180" /><path
       d="M181.6,553.1c0,0,0,0-28.9-140.1c-86.7,0-86.7,0-86.7,0C37.2,552.3,37.2,552.3,37.2,552.3"
       class="st1"
       id="path24184" /><path
       d="M152.7,412.6c0-24-19.4-43.4-43.3-43.4c-24,0-43.3,19.4-43.3,43.4"
       class="st1"
       id="path24186" /><path
       d="M152.7,414.2c0,24-19.4,43.4-43.3,43.4c-24,0-43.3-19.4-43.3-43.4"
       class="st2"
       id="path24196" /><path
       d="M44.8,511.8c-2.4-0.8-2.4-0.8-2.4-0.8"
       class="st1"
       id="path24198" /><path
       d="M49.7,481.2c-1.9,9.8-1.9,9.8-1.9,9.8"
       class="st1"
       id="path24200" /><path
       d="M54.5,463.2c-2.4-0.8-2.4-0.8-2.4-0.8"
       class="st1"
       id="path24202" /><path
       d="M58.4,443.1c-2.4-0.8-2.4-0.8-2.4-0.8"
       class="st1"
       id="path24204" /><path
       d="M174,511.8c2.4-0.8,2.4-0.8,2.4-0.8"
       class="st1"
       id="path24206" /><path
       d="M168.8,481.2c1.9,9.8,1.9,9.8,1.9,9.8"
       class="st1"
       id="path24208" /><path
       d="M164.3,463.2c2.4-0.8,2.4-0.8,2.4-0.8"
       class="st1"
       id="path24210" /><path
       d="M160,443.1c2.4-0.8,2.4-0.8,2.4-0.8"
       class="st1"
       id="path24212" /><g
       transform="matrix(0.7969095,0,0,0.7976645,34.332885,85.737075)"
       id="g4396"><path
         d="M88.6,538.6c0,3,2.5,5.5,5.5,5.5c3,0,5.5-2.5,5.5-5.5c0-3-2.5-5.5-5.5-5.5    C91.1,533.1,88.6,535.6,88.6,538.6z"
         class="st3"
         id="path24190" /><path
         d="M68,549.2c52.3,0,52.3,0,52.3,0"
         class="st3"
         id="path24192" /><path
         d="M94.1,543.1c0,5,0,5,0,5"
         class="st3"
         id="path24194" /></g><path
       d="M129.9,527.5v21.9"
       class="st4"
       id="path4405" /><path
       d="M88.9,527.5v21.9"
       class="st4"
       id="path4916" /></g></svg>