<?xml version="1.0" encoding="utf-8"?>
<!-- Generator: Adobe Illustrator 19.1.0, SVG Export Plug-In . SVG Version: 6.00 Build 0)  -->
<svg version="1.1"
	 id="svg23341" xmlns:svg="http://www.w3.org/2000/svg" xmlns:dc="http://purl.org/dc/elements/1.1/" xmlns:rdf="http://www.w3.org/1999/02/22-rdf-syntax-ns#" xmlns:cc="http://creativecommons.org/ns#"
	 xmlns="http://www.w3.org/2000/svg" xmlns:xlink="http://www.w3.org/1999/xlink" x="0px" y="0px" viewBox="-240 129.3 361 338"
	 style="enable-background:new -240 129.3 361 338;" xml:space="preserve">
<style type="text/css">
	.st0{fill:none;}
	.st1{fill:url(#rect3229_2_);}
	.st2{opacity:0.6875;}
	.st3{fill:#217B00;stroke:#FFFFFF;stroke-width:1.7717;stroke-linecap:round;stroke-linejoin:round;}
	.st4{fill:none;stroke:#FFFFFF;stroke-width:0.8858;}
	.st5{fill:none;stroke:#FFFFFF;stroke-width:1.3333;}
	.st6{enable-background:new    ;}
	.st7{fill:#FFFFFF;}
	.st8{fill:none;stroke:#808080;stroke-width:0.1772;}
	.st9{fill:url(#rect3227_1_);stroke:#FFFFFF;}
	.st10{fill:url(#rect3229_3_);stroke:#FFFFFF;}
	.st11{fill:none;stroke:#FFFFFF;}
	.st12{fill:none;stroke:#FFFFFF;stroke-width:2;}
	.st13{fill:none;stroke:#FFFFFF;stroke-dasharray:27,27;}
	.st14{fill:none;stroke:#318D5A;stroke-width:2;}
	.st15{fill:none;stroke:#FFFFFF;stroke-dasharray:36,36;}
	.st16{fill:#FFFFFF;stroke:#000000;stroke-width:2;stroke-linecap:round;stroke-linejoin:round;}
	.st17{fill:none;stroke:#4466BB;stroke-width:2;stroke-linecap:round;stroke-linejoin:round;}
	.st18{fill:#CC3333;stroke:#E24B5A;stroke-width:2;stroke-linecap:round;stroke-linejoin:round;}
	.st19{fill:none;stroke:#CC3333;stroke-width:2;stroke-linecap:round;stroke-dasharray:8.9929,8.9929;}
	.st20{fill:none;stroke:#4466BB;stroke-width:2;}
	.st21{fill:none;stroke:#CC3333;stroke-width:2;stroke-linecap:round;stroke-linejoin:round;}
	.st22{fill:#CC3333;}
	.st23{fill:url(#path14545_2_);stroke:#CC3333;stroke-width:2;}
	.st24{fill:none;stroke:#CC3333;stroke-width:2;stroke-linecap:round;}
	.st25{fill:url(#path15433_2_);stroke:#CC3333;stroke-width:2;}
	.st26{fill:#5567B0;}
	.st27{fill:none;stroke:#CC3333;stroke-width:2;}
	.st28{fill-opacity:0;stroke:#FFFFFF;}
	.st29{fill:#FFFFFF;stroke:#FFFFFF;}
	.st30{fill:#FFFFFF;fill-opacity:0;stroke:#FFFFFF;}
</style>
<pattern  x="-240" y="467.3" width="800" height="450" patternUnits="userSpaceOnUse" id="path14545_1_" viewBox="0 -450 800 450" style="overflow:visible;">
	<g>
		<polygon class="st0" points="0,0 800,0 800,-450 0,-450 		"/>
		<g>
			<polygon class="st0" points="0,-450 800,-450 800,0 0,0 			"/>
			<g id="g6_3_">
				<polygon id="polygon8_3_" class="st0" points="0,0 800,0 800,-450 0,-450 				"/>
				<g id="g11_2_">
					<polygon id="polygon13_2_" class="st0" points="0,-450 800,-450 800,0 0,0 					"/>
				</g>
			</g>
		</g>
	</g>
</pattern>
<pattern  x="-240" y="467.3" width="800" height="450" patternUnits="userSpaceOnUse" id="path15433_1_" viewBox="0 -450 800 450" style="overflow:visible;">
	<g>
		<polygon class="st0" points="0,0 800,0 800,-450 0,-450 		"/>
		<g>
			<polygon class="st0" points="0,-450 800,-450 800,0 0,0 			"/>
			<g id="g13_2_">
				<polygon id="polygon15_2_" class="st0" points="0,0 800,0 800,-450 0,-450 				"/>
				<g id="g6_4_">
					<polygon id="polygon8_4_" class="st0" points="0,-450 800,-450 800,0 0,0 					"/>
				</g>
			</g>
		</g>
	</g>
</pattern>
<radialGradient id="rect3229_2_" cx="-487.9478" cy="209.6143" r="81.3849" gradientTransform="matrix(1.7143 0 0 -4.4679 777.8619 1149.1893)" gradientUnits="userSpaceOnUse">
	<stop  offset="0" style="stop-color:#00B800"/>
	<stop  offset="1" style="stop-color:#008800"/>
</radialGradient>
<rect id="rect3229" x="-240" y="-47.6" class="st1" width="361" height="515.3"/>
<g id="layer6">
	<g id="layer1" transform="translate(0,10.743497)">
		<g id="g6025" transform="translate(10.62978,10.62993)" class="st2">
			<rect id="rect2182" x="-1173.9" y="525.5" class="st3" width="326.8" height="60"/>
			<rect id="rect2184" x="-1173.9" y="-135.4" class="st3" width="326.8" height="60"/>
			<path id="path2186" class="st4" d="M-1174.1,494.6h327.2"/>
			<path id="path2188" class="st5" d="M-1170.1,488.9h9.7"/>
			<path id="path2190" class="st5" d="M-1170.1,482.9h9.7"/>
			<path id="path2192" class="st5" d="M-1170.1,476.9h9.7"/>
			<path id="path2194" class="st5" d="M-1170.1,470.9h9.7"/>
			<path id="path2212" class="st5" d="M-860.5,488.9h9.7"/>
			<path id="path2214" class="st5" d="M-860.5,482.9h9.7"/>
			<path id="path2216" class="st5" d="M-860.5,476.9h9.7"/>
			<path id="path2218" class="st5" d="M-860.5,470.9h9.7"/>
			<path id="path2241" class="st5" d="M-1170.1,519.5h9.7"/>
			<path id="path2245" class="st5" d="M-1170.1,513.5h9.7"/>
			<path id="path2247" class="st5" d="M-1170.1,507.5h9.7"/>
			<path id="path2249" class="st5" d="M-1170.1,501.5h9.7"/>
			<path id="path2267" class="st5" d="M-860.5,519.5h9.7"/>
			<path id="path2269" class="st5" d="M-860.5,513.5h9.7"/>
			<path id="path2271" class="st5" d="M-860.5,507.5h9.7"/>
			<path id="path2273" class="st5" d="M-860.5,501.5h9.7"/>
			<path id="path2279" class="st4" d="M-1174.1,434.6h327.2"/>
			<path id="path2277" class="st5" d="M-1170.1,428.9h9.7"/>
			<path id="path2281" class="st5" d="M-1170.1,422.9h9.7"/>
			<path id="path2283" class="st5" d="M-1170.1,416.9h9.7"/>
			<path id="path2285" class="st5" d="M-1170.1,410.9h9.7"/>
			<path id="path2303" class="st5" d="M-860.5,428.9h9.7"/>
			<path id="path2305" class="st5" d="M-860.5,422.9h9.7"/>
			<path id="path2307" class="st5" d="M-860.5,416.9h9.7"/>
			<path id="path2309" class="st5" d="M-860.5,410.9h9.7"/>
			<path id="path2315" class="st4" d="M-1174.1,465.2h327.2"/>
			<path id="path2313" class="st5" d="M-1170.1,459.5h9.7"/>
			<path id="path2317" class="st5" d="M-1170.1,453.5h9.7"/>
			<path id="path2319" class="st5" d="M-1170.1,447.5h9.7"/>
			<path id="path2321" class="st5" d="M-1170.1,441.5h9.7"/>
			<path id="path2339" class="st5" d="M-860.5,459.5h9.7"/>
			<path id="path2341" class="st5" d="M-860.5,453.5h9.7"/>
			<path id="path2343" class="st5" d="M-860.5,447.5h9.7"/>
			<path id="path2345" class="st5" d="M-860.5,441.5h9.7"/>
			<path id="path2351" class="st4" d="M-1174.1,374.5h327.2"/>
			<path id="path2349" class="st5" d="M-1170.1,368.8h9.7"/>
			<path id="path2353" class="st5" d="M-1170.1,362.8h9.7"/>
			<path id="path2355" class="st5" d="M-1170.1,356.9h9.7"/>
			<path id="path2357" class="st5" d="M-1170.1,350.9h9.7"/>
			<path id="path2375" class="st5" d="M-860.5,368.8h9.7"/>
			<path id="path2377" class="st5" d="M-860.5,362.8h9.7"/>
			<path id="path2379" class="st5" d="M-860.5,356.9h9.7"/>
			<path id="path2381" class="st5" d="M-860.5,350.9h9.7"/>
			<path id="path2387" class="st4" d="M-1174.1,405.2h327.2"/>
			<path id="path2385" class="st5" d="M-1170.1,399.5h9.7"/>
			<path id="path2389" class="st5" d="M-1170.1,393.5h9.7"/>
			<path id="path2391" class="st5" d="M-1170.1,387.5h9.7"/>
			<path id="path2393" class="st5" d="M-1170.1,381.5h9.7"/>
			<path id="path2411" class="st5" d="M-860.5,399.5h9.7"/>
			<path id="path2413" class="st5" d="M-860.5,393.5h9.7"/>
			<path id="path2415" class="st5" d="M-860.5,387.5h9.7"/>
			<path id="path2417" class="st5" d="M-860.5,381.5h9.7"/>
			<path id="path2423" class="st4" d="M-1174.1,314.5h327.2"/>
			<path id="path2421" class="st5" d="M-1170.1,308.8h9.7"/>
			<path id="path2425" class="st5" d="M-1170.1,302.8h9.7"/>
			<path id="path2427" class="st5" d="M-1170.1,296.8h9.7"/>
			<path id="path2429" class="st5" d="M-1170.1,290.8h9.7"/>
			<path id="path2447" class="st5" d="M-860.5,308.8h9.7"/>
			<path id="path2449" class="st5" d="M-860.5,302.8h9.7"/>
			<path id="path2451" class="st5" d="M-860.5,296.8h9.7"/>
			<path id="path2453" class="st5" d="M-860.5,290.8h9.7"/>
			<path id="path2459" class="st4" d="M-1174.1,345.1h327.2"/>
			<path id="path2457" class="st5" d="M-1170.1,339.4h9.7"/>
			<path id="path2461" class="st5" d="M-1170.1,333.4h9.7"/>
			<path id="path2463" class="st5" d="M-1170.1,327.5h9.7"/>
			<path id="path2465" class="st5" d="M-1170.1,321.5h9.7"/>
			<path id="path2483" class="st5" d="M-860.5,339.4h9.7"/>
			<path id="path2485" class="st5" d="M-860.5,333.4h9.7"/>
			<path id="path2487" class="st5" d="M-860.5,327.5h9.7"/>
			<path id="path2489" class="st5" d="M-860.5,321.5h9.7"/>
			<path id="path2495" class="st4" d="M-1174.1,254.5h327.2"/>
			<path id="path2493" class="st5" d="M-1170.1,248.8h9.7"/>
			<path id="path2497" class="st5" d="M-1170.1,242.8h9.7"/>
			<path id="path2499" class="st5" d="M-1170.1,236.8h9.7"/>
			<path id="path2501" class="st5" d="M-1170.1,230.8h9.7"/>
			<path id="path2519" class="st5" d="M-860.5,248.8h9.7"/>
			<path id="path2521" class="st5" d="M-860.5,242.8h9.7"/>
			<path id="path2523" class="st5" d="M-860.5,236.8h9.7"/>
			<path id="path2525" class="st5" d="M-860.5,230.8h9.7"/>
			<path id="path2531" class="st4" d="M-1174.1,285.1h327.2"/>
			<path id="path2529" class="st5" d="M-1170.1,279.4h9.7"/>
			<path id="path2533" class="st5" d="M-1170.1,273.4h9.7"/>
			<path id="path2535" class="st5" d="M-1170.1,267.4h9.7"/>
			<path id="path2537" class="st5" d="M-1170.1,261.4h9.7"/>
			<path id="path2555" class="st5" d="M-860.5,279.4h9.7"/>
			<path id="path2557" class="st5" d="M-860.5,273.4h9.7"/>
			<path id="path2559" class="st5" d="M-860.5,267.4h9.7"/>
			<path id="path2561" class="st5" d="M-860.5,261.4h9.7"/>
			<path id="path2567" class="st4" d="M-1174.1,194.5h327.2"/>
			<path id="path2565" class="st5" d="M-1170.1,188.8h9.7"/>
			<path id="path2569" class="st5" d="M-1170.1,182.8h9.7"/>
			<path id="path2571" class="st5" d="M-1170.1,176.8h9.7"/>
			<path id="path2573" class="st5" d="M-1170.1,170.8h9.7"/>
			<path id="path2591" class="st5" d="M-860.5,188.8h9.7"/>
			<path id="path2593" class="st5" d="M-860.5,182.8h9.7"/>
			<path id="path2595" class="st5" d="M-860.5,176.8h9.7"/>
			<path id="path2597" class="st5" d="M-860.5,170.8h9.7"/>
			<path id="path2603" class="st4" d="M-1174.1,225.1h327.2"/>
			<path id="path2601" class="st5" d="M-1170.1,219.4h9.7"/>
			<path id="path2605" class="st5" d="M-1170.1,213.4h9.7"/>
			<path id="path2607" class="st5" d="M-1170.1,207.4h9.7"/>
			<path id="path2609" class="st5" d="M-1170.1,201.4h9.7"/>
			<path id="path2627" class="st5" d="M-860.5,219.4h9.7"/>
			<path id="path2629" class="st5" d="M-860.5,213.4h9.7"/>
			<path id="path2631" class="st5" d="M-860.5,207.4h9.7"/>
			<path id="path2633" class="st5" d="M-860.5,201.4h9.7"/>
			<path id="path2639" class="st4" d="M-1174.1,134.4h327.2"/>
			<path id="path2637" class="st5" d="M-1170.1,128.7h9.7"/>
			<path id="path2641" class="st5" d="M-1170.1,122.8h9.7"/>
			<path id="path2643" class="st5" d="M-1170.1,116.8h9.7"/>
			<path id="path2645" class="st5" d="M-1170.1,110.8h9.7"/>
			<path id="path2663" class="st5" d="M-860.5,128.7h9.7"/>
			<path id="path2665" class="st5" d="M-860.5,122.8h9.7"/>
			<path id="path2667" class="st5" d="M-860.5,116.8h9.7"/>
			<path id="path2669" class="st5" d="M-860.5,110.8h9.7"/>
			<path id="path2675" class="st4" d="M-1174.1,165.1h327.2"/>
			<path id="path2673" class="st5" d="M-1170.1,159.4h9.7"/>
			<path id="path2677" class="st5" d="M-1170.1,153.4h9.7"/>
			<path id="path2679" class="st5" d="M-1170.1,147.4h9.7"/>
			<path id="path2681" class="st5" d="M-1170.1,141.4h9.7"/>
			<path id="path2699" class="st5" d="M-860.5,159.4h9.7"/>
			<path id="path2701" class="st5" d="M-860.5,153.4h9.7"/>
			<path id="path2703" class="st5" d="M-860.5,147.4h9.7"/>
			<path id="path2705" class="st5" d="M-860.5,141.4h9.7"/>
			<path id="path2711" class="st4" d="M-1174.1,74.4h327.2"/>
			<path id="path2709" class="st5" d="M-1170.1,68.7h9.7"/>
			<path id="path2713" class="st5" d="M-1170.1,62.7h9.7"/>
			<path id="path2715" class="st5" d="M-1170.1,56.7h9.7"/>
			<path id="path2717" class="st5" d="M-1170.1,50.7h9.7"/>
			<path id="path2735" class="st5" d="M-860.5,68.7h9.7"/>
			<path id="path2737" class="st5" d="M-860.5,62.7h9.7"/>
			<path id="path2739" class="st5" d="M-860.5,56.7h9.7"/>
			<path id="path2741" class="st5" d="M-860.5,50.7h9.7"/>
			<path id="path2747" class="st4" d="M-1174.1,105h327.2"/>
			<path id="path2745" class="st5" d="M-1170.1,99.3h9.7"/>
			<path id="path2749" class="st5" d="M-1170.1,93.3h9.7"/>
			<path id="path2751" class="st5" d="M-1170.1,87.4h9.7"/>
			<path id="path2753" class="st5" d="M-1170.1,81.4h9.7"/>
			<path id="path2771" class="st5" d="M-860.5,99.3h9.7"/>
			<path id="path2773" class="st5" d="M-860.5,93.3h9.7"/>
			<path id="path2775" class="st5" d="M-860.5,87.4h9.7"/>
			<path id="path2777" class="st5" d="M-860.5,81.4h9.7"/>
			<path id="path2783" class="st4" d="M-1174.1,14.4h327.2"/>
			<path id="path2781" class="st5" d="M-1170.1,8.7h9.7"/>
			<path id="path2785" class="st5" d="M-1170.1,2.7h9.7"/>
			<path id="path2787" class="st5" d="M-1170.1-3.3h9.7"/>
			<path id="path2789" class="st5" d="M-1170.1-9.3h9.7"/>
			<path id="path2807" class="st5" d="M-860.5,8.7h9.7"/>
			<path id="path2809" class="st5" d="M-860.5,2.7h9.7"/>
			<path id="path2811" class="st5" d="M-860.5-3.3h9.7"/>
			<path id="path2813" class="st5" d="M-860.5-9.3h9.7"/>
			<path id="path2819" class="st4" d="M-1174.1,45h327.2"/>
			<path id="path2817" class="st5" d="M-1170.1,39.3h9.7"/>
			<path id="path2821" class="st5" d="M-1170.1,33.3h9.7"/>
			<path id="path2823" class="st5" d="M-1170.1,27.3h9.7"/>
			<path id="path2825" class="st5" d="M-1170.1,21.3h9.7"/>
			<path id="path2843" class="st5" d="M-860.5,39.3h9.7"/>
			<path id="path2845" class="st5" d="M-860.5,33.3h9.7"/>
			<path id="path2847" class="st5" d="M-860.5,27.3h9.7"/>
			<path id="path2849" class="st5" d="M-860.5,21.3h9.7"/>
			<path id="path2855" class="st4" d="M-1174.1-45.6h327.2"/>
			<path id="path2853" class="st5" d="M-1170.1-51.3h9.7"/>
			<path id="path2857" class="st5" d="M-1170.1-57.3h9.7"/>
			<path id="path2859" class="st5" d="M-1170.1-63.3h9.7"/>
			<path id="path2861" class="st5" d="M-1170.1-69.3h9.7"/>
			<path id="path2879" class="st5" d="M-860.5-51.3h9.7"/>
			<path id="path2881" class="st5" d="M-860.5-57.3h9.7"/>
			<path id="path2883" class="st5" d="M-860.5-63.3h9.7"/>
			<path id="path2885" class="st5" d="M-860.5-69.3h9.7"/>
			<path id="path2891" class="st4" d="M-1174.1-15h327.2"/>
			<path id="path2889" class="st5" d="M-1170.1-20.7h9.7"/>
			<path id="path2893" class="st5" d="M-1170.1-26.7h9.7"/>
			<path id="path2895" class="st5" d="M-1170.1-32.7h9.7"/>
			<path id="path2897" class="st5" d="M-1170.1-38.7h9.7"/>
			<g id="g5861" transform="translate(0,56.02796)">
				<path id="path2196" class="st5" d="M-968.6,432.9h9.7"/>
				<path id="path2198" class="st5" d="M-968.6,426.9h9.7"/>
				<path id="path2200" class="st5" d="M-968.6,420.9h9.7"/>
				<path id="path2202" class="st5" d="M-968.6,414.9h9.7"/>
				<path id="path2251" class="st5" d="M-968.6,463.5h9.7"/>
				<path id="path2253" class="st5" d="M-968.6,457.5h9.7"/>
				<path id="path2255" class="st5" d="M-968.6,451.5h9.7"/>
				<path id="path2257" class="st5" d="M-968.6,445.5h9.7"/>
				<path id="path2287" class="st5" d="M-968.6,372.8h9.7"/>
				<path id="path2289" class="st5" d="M-968.6,366.8h9.7"/>
				<path id="path2291" class="st5" d="M-968.6,360.9h9.7"/>
				<path id="path2293" class="st5" d="M-968.6,354.9h9.7"/>
				<path id="path2323" class="st5" d="M-968.6,403.5h9.7"/>
				<path id="path2325" class="st5" d="M-968.6,397.5h9.7"/>
				<path id="path2327" class="st5" d="M-968.6,391.5h9.7"/>
				<path id="path2329" class="st5" d="M-968.6,385.5h9.7"/>
				<path id="path2359" class="st5" d="M-968.6,312.8h9.7"/>
				<path id="path2361" class="st5" d="M-968.6,306.8h9.7"/>
				<path id="path2363" class="st5" d="M-968.6,300.8h9.7"/>
				<path id="path2365" class="st5" d="M-968.6,294.8h9.7"/>
				<path id="path2395" class="st5" d="M-968.6,343.4h9.7"/>
				<path id="path2397" class="st5" d="M-968.6,337.4h9.7"/>
				<path id="path2399" class="st5" d="M-968.6,331.4h9.7"/>
				<path id="path2401" class="st5" d="M-968.6,325.5h9.7"/>
				<path id="path2431" class="st5" d="M-968.6,252.8h9.7"/>
				<path id="path2433" class="st5" d="M-968.6,246.8h9.7"/>
				<path id="path2435" class="st5" d="M-968.6,240.8h9.7"/>
				<path id="path2437" class="st5" d="M-968.6,234.8h9.7"/>
				<path id="path2467" class="st5" d="M-968.6,283.4h9.7"/>
				<path id="path2469" class="st5" d="M-968.6,277.4h9.7"/>
				<path id="path2471" class="st5" d="M-968.6,271.4h9.7"/>
				<path id="path2473" class="st5" d="M-968.6,265.4h9.7"/>
				<path id="path2503" class="st5" d="M-968.6,192.8h9.7"/>
				<path id="path2505" class="st5" d="M-968.6,186.8h9.7"/>
				<path id="path2507" class="st5" d="M-968.6,180.8h9.7"/>
				<path id="path2509" class="st5" d="M-968.6,174.8h9.7"/>
				<path id="path2539" class="st5" d="M-968.6,223.4h9.7"/>
				<path id="path2541" class="st5" d="M-968.6,217.4h9.7"/>
				<path id="path2543" class="st5" d="M-968.6,211.4h9.7"/>
				<path id="path2545" class="st5" d="M-968.6,205.4h9.7"/>
				<path id="path2575" class="st5" d="M-968.6,132.7h9.7"/>
				<path id="path2577" class="st5" d="M-968.6,126.7h9.7"/>
				<path id="path2579" class="st5" d="M-968.6,120.8h9.7"/>
				<path id="path2581" class="st5" d="M-968.6,114.8h9.7"/>
				<path id="path2611" class="st5" d="M-968.6,163.4h9.7"/>
				<path id="path2613" class="st5" d="M-968.6,157.4h9.7"/>
				<path id="path2615" class="st5" d="M-968.6,151.4h9.7"/>
				<path id="path2617" class="st5" d="M-968.6,145.4h9.7"/>
				<path id="path2647" class="st5" d="M-968.6,72.7h9.7"/>
				<path id="path2649" class="st5" d="M-968.6,66.7h9.7"/>
				<path id="path2651" class="st5" d="M-968.6,60.7h9.7"/>
				<path id="path2653" class="st5" d="M-968.6,54.7h9.7"/>
				<path id="path2683" class="st5" d="M-968.6,103.3h9.7"/>
				<path id="path2685" class="st5" d="M-968.6,97.3h9.7"/>
				<path id="path2687" class="st5" d="M-968.6,91.4h9.7"/>
				<path id="path2689" class="st5" d="M-968.6,85.4h9.7"/>
				<path id="path2719" class="st5" d="M-968.6,12.7h9.7"/>
				<path id="path2721" class="st5" d="M-968.6,6.7h9.7"/>
				<path id="path2723" class="st5" d="M-968.6,0.7h9.7"/>
				<path id="path2725" class="st5" d="M-968.6-5.3h9.7"/>
				<path id="path2755" class="st5" d="M-968.6,43.3h9.7"/>
				<path id="path2757" class="st5" d="M-968.6,37.3h9.7"/>
				<path id="path2759" class="st5" d="M-968.6,31.3h9.7"/>
				<path id="path2761" class="st5" d="M-968.6,25.3h9.7"/>
				<path id="path2791" class="st5" d="M-968.6-47.3h9.7"/>
				<path id="path2793" class="st5" d="M-968.6-53.3h9.7"/>
				<path id="path2795" class="st5" d="M-968.6-59.3h9.7"/>
				<path id="path2797" class="st5" d="M-968.6-65.3h9.7"/>
				<path id="path2827" class="st5" d="M-968.6-16.7h9.7"/>
				<path id="path2829" class="st5" d="M-968.6-22.7h9.7"/>
				<path id="path2831" class="st5" d="M-968.6-28.7h9.7"/>
				<path id="path2833" class="st5" d="M-968.6-34.7h9.7"/>
				<path id="path2863" class="st5" d="M-968.6-107.4h9.7"/>
				<path id="path2865" class="st5" d="M-968.6-113.4h9.7"/>
				<path id="path2867" class="st5" d="M-968.6-119.3h9.7"/>
				<path id="path2869" class="st5" d="M-968.6-125.3h9.7"/>
				<path id="path2899" class="st5" d="M-968.6-76.7h9.7"/>
				<path id="path2901" class="st5" d="M-968.6-82.7h9.7"/>
				<path id="path2903" class="st5" d="M-968.6-88.7h9.7"/>
				<path id="path2905" class="st5" d="M-968.6-94.7h9.7"/>
			</g>
			<g id="g5943" transform="translate(0,-56.02915)">
				<path id="path2204" class="st5" d="M-1062,544.9h9.7"/>
				<path id="path2206" class="st5" d="M-1062,538.9h9.7"/>
				<path id="path2208" class="st5" d="M-1062,532.9h9.7"/>
				<path id="path2210" class="st5" d="M-1062,526.9h9.7"/>
				<path id="path2259" class="st5" d="M-1062,575.5h9.7"/>
				<path id="path2261" class="st5" d="M-1062,569.5h9.7"/>
				<path id="path2263" class="st5" d="M-1062,563.6h9.7"/>
				<path id="path2265" class="st5" d="M-1062,557.6h9.7"/>
				<path id="path2295" class="st5" d="M-1062,484.9h9.7"/>
				<path id="path2297" class="st5" d="M-1062,478.9h9.7"/>
				<path id="path2299" class="st5" d="M-1062,472.9h9.7"/>
				<path id="path2301" class="st5" d="M-1062,466.9h9.7"/>
				<path id="path2331" class="st5" d="M-1062,515.5h9.7"/>
				<path id="path2333" class="st5" d="M-1062,509.5h9.7"/>
				<path id="path2335" class="st5" d="M-1062,503.5h9.7"/>
				<path id="path2337" class="st5" d="M-1062,497.5h9.7"/>
				<path id="path2367" class="st5" d="M-1062,424.9h9.7"/>
				<path id="path2369" class="st5" d="M-1062,418.9h9.7"/>
				<path id="path2371" class="st5" d="M-1062,412.9h9.7"/>
				<path id="path2373" class="st5" d="M-1062,406.9h9.7"/>
				<path id="path2403" class="st5" d="M-1062,455.5h9.7"/>
				<path id="path2405" class="st5" d="M-1062,449.5h9.7"/>
				<path id="path2407" class="st5" d="M-1062,443.5h9.7"/>
				<path id="path2409" class="st5" d="M-1062,437.5h9.7"/>
				<path id="path2439" class="st5" d="M-1062,364.8h9.7"/>
				<path id="path2441" class="st5" d="M-1062,358.9h9.7"/>
				<path id="path2443" class="st5" d="M-1062,352.9h9.7"/>
				<path id="path2445" class="st5" d="M-1062,346.9h9.7"/>
				<path id="path2475" class="st5" d="M-1062,395.5h9.7"/>
				<path id="path2477" class="st5" d="M-1062,389.5h9.7"/>
				<path id="path2479" class="st5" d="M-1062,383.5h9.7"/>
				<path id="path2481" class="st5" d="M-1062,377.5h9.7"/>
				<path id="path2511" class="st5" d="M-1062,304.8h9.7"/>
				<path id="path2513" class="st5" d="M-1062,298.8h9.7"/>
				<path id="path2515" class="st5" d="M-1062,292.8h9.7"/>
				<path id="path2517" class="st5" d="M-1062,286.8h9.7"/>
				<path id="path2547" class="st5" d="M-1062,335.4h9.7"/>
				<path id="path2549" class="st5" d="M-1062,329.5h9.7"/>
				<path id="path2551" class="st5" d="M-1062,323.5h9.7"/>
				<path id="path2553" class="st5" d="M-1062,317.5h9.7"/>
				<path id="path2583" class="st5" d="M-1062,244.8h9.7"/>
				<path id="path2585" class="st5" d="M-1062,238.8h9.7"/>
				<path id="path2587" class="st5" d="M-1062,232.8h9.7"/>
				<path id="path2589" class="st5" d="M-1062,226.8h9.7"/>
				<path id="path2619" class="st5" d="M-1062,275.4h9.7"/>
				<path id="path2621" class="st5" d="M-1062,269.4h9.7"/>
				<path id="path2623" class="st5" d="M-1062,263.4h9.7"/>
				<path id="path2625" class="st5" d="M-1062,257.4h9.7"/>
				<path id="path2655" class="st5" d="M-1062,184.8h9.7"/>
				<path id="path2657" class="st5" d="M-1062,178.8h9.7"/>
				<path id="path2659" class="st5" d="M-1062,172.8h9.7"/>
				<path id="path2661" class="st5" d="M-1062,166.8h9.7"/>
				<path id="path2691" class="st5" d="M-1062,215.4h9.7"/>
				<path id="path2693" class="st5" d="M-1062,209.4h9.7"/>
				<path id="path2695" class="st5" d="M-1062,203.4h9.7"/>
				<path id="path2697" class="st5" d="M-1062,197.4h9.7"/>
				<path id="path2727" class="st5" d="M-1062,124.7h9.7"/>
				<path id="path2729" class="st5" d="M-1062,118.8h9.7"/>
				<path id="path2731" class="st5" d="M-1062,112.8h9.7"/>
				<path id="path2733" class="st5" d="M-1062,106.8h9.7"/>
				<path id="path2763" class="st5" d="M-1062,155.4h9.7"/>
				<path id="path2765" class="st5" d="M-1062,149.4h9.7"/>
				<path id="path2767" class="st5" d="M-1062,143.4h9.7"/>
				<path id="path2769" class="st5" d="M-1062,137.4h9.7"/>
				<path id="path2799" class="st5" d="M-1062,64.7h9.7"/>
				<path id="path2801" class="st5" d="M-1062,58.7h9.7"/>
				<path id="path2803" class="st5" d="M-1062,52.7h9.7"/>
				<path id="path2805" class="st5" d="M-1062,46.7h9.7"/>
				<path id="path2835" class="st5" d="M-1062,95.3h9.7"/>
				<path id="path2837" class="st5" d="M-1062,89.4h9.7"/>
				<path id="path2839" class="st5" d="M-1062,83.4h9.7"/>
				<path id="path2841" class="st5" d="M-1062,77.4h9.7"/>
				<path id="path2871" class="st5" d="M-1062,4.7h9.7"/>
				<path id="path2873" class="st5" d="M-1062-1.3h9.7"/>
				<path id="path2875" class="st5" d="M-1062-7.3h9.7"/>
				<path id="path2877" class="st5" d="M-1062-13.3h9.7"/>
				<path id="path2907" class="st5" d="M-1062,35.3h9.7"/>
				<path id="path2909" class="st5" d="M-1062,29.3h9.7"/>
				<path id="path2911" class="st5" d="M-1062,23.3h9.7"/>
				<path id="path2913" class="st5" d="M-1062,17.3h9.7"/>
			</g>
			<path id="path2915" class="st5" d="M-860.5-20.7h9.7"/>
			<path id="path2917" class="st5" d="M-860.5-26.7h9.7"/>
			<path id="path2919" class="st5" d="M-860.5-32.7h9.7"/>
			<path id="path2921" class="st5" d="M-860.5-38.7h9.7"/>
			<path id="path2940" class="st4" d="M-1019.5,513.2h18.1"/>
			<path id="path2945" class="st4" d="M-1019.5-63h18.1"/>
			<g id="g2951" transform="translate(-7.706525,36.41094)">
				<path id="path2947" class="st5" d="M-971.3,553.6v-9"/>
				<path id="path2949" class="st5" d="M-1034.3,553.6v-9"/>
			</g>
			<g id="g2955" transform="translate(374.9706,36.41094)">
				<path id="path2957" class="st5" d="M-1353.9-166.6v-9"/>
				<path id="path2959" class="st5" d="M-1417-166.6v-9"/>
			</g>
		</g>
	</g>
	<g id="layer2" transform="translate(0,10.743497)">
		<g id="g6379" transform="translate(10.45445,10.61265)">
			<g id="g4580" transform="translate(0.353208,0)">
				
					<text id="text382" transform="matrix(0 -1 1 0 -887.5693 482.6443)" class="st7" style="font-family:'Arial-BoldMT'; font-size:30.1161px;">10</text>
				
					<text id="text384" transform="matrix(0 -1 1 0 -887.5693 482.6443)" class="st8" style="font-family:'Arial-BoldMT'; font-size:30.1161px;">10</text>
				
					<text id="text386" transform="matrix(0 -1 1 0 -887.5693 422.616)" class="st7" style="font-family:'Arial-BoldMT'; font-size:30.1161px;">20</text>
				
					<text id="text388" transform="matrix(0 -1 1 0 -887.5693 422.616)" class="st8" style="font-family:'Arial-BoldMT'; font-size:30.1161px;">20</text>
				
					<text id="text390" transform="matrix(0 -1 1 0 -887.5693 362.5896)" class="st7" style="font-family:'Arial-BoldMT'; font-size:30.1161px;">30</text>
				
					<text id="text392" transform="matrix(0 -1 1 0 -887.5693 362.5896)" class="st8" style="font-family:'Arial-BoldMT'; font-size:30.1161px;">30</text>
				
					<text id="text394" transform="matrix(0 -1 1 0 -887.5693 302.5691)" class="st7" style="font-family:'Arial-BoldMT'; font-size:30.1161px;">40</text>
				
					<text id="text396" transform="matrix(0 -1 1 0 -887.5693 302.5691)" class="st8" style="font-family:'Arial-BoldMT'; font-size:30.1161px;">40</text>
				
					<text id="text398" transform="matrix(0 -1 1 0 -887.5693 242.5427)" class="st7" style="font-family:'Arial-BoldMT'; font-size:30.1161px;">50</text>
				
					<text id="text400" transform="matrix(0 -1 1 0 -887.5693 242.5427)" class="st8" style="font-family:'Arial-BoldMT'; font-size:30.1161px;">50</text>
				
					<text id="text402" transform="matrix(0 -1 1 0 -887.5693 182.5154)" class="st7" style="font-family:'Arial-BoldMT'; font-size:30.1161px;">40</text>
				
					<text id="text404" transform="matrix(0 -1 1 0 -887.5693 182.5154)" class="st8" style="font-family:'Arial-BoldMT'; font-size:30.1161px;">40</text>
				
					<text id="text406" transform="matrix(0 -1 1 0 -887.5693 122.4958)" class="st7" style="font-family:'Arial-BoldMT'; font-size:30.1161px;">30</text>
				
					<text id="text408" transform="matrix(0 -1 1 0 -887.5693 122.4958)" class="st8" style="font-family:'Arial-BoldMT'; font-size:30.1161px;">30</text>
				
					<text id="text410" transform="matrix(0 -1 1 0 -887.5693 62.4705)" class="st7" style="font-family:'Arial-BoldMT'; font-size:30.1161px;">20</text>
				
					<text id="text412" transform="matrix(0 -1 1 0 -887.5693 62.4705)" class="st8" style="font-family:'Arial-BoldMT'; font-size:30.1161px;">20</text>
				
					<text id="text414" transform="matrix(0 -1 1 0 -887.5693 2.4431)" class="st7" style="font-family:'Arial-BoldMT'; font-size:30.1161px;">10</text>
				
					<text id="text416" transform="matrix(0 -1 1 0 -887.5693 2.4431)" class="st8" style="font-family:'Arial-BoldMT'; font-size:30.1161px;">10</text>
				<g id="g4564">
					<path id="path3683" class="st7" d="M-898.8,492.7l-2.2-7.5h4.3L-898.8,492.7z"/>
					<path id="path4558" class="st7" d="M-898.8,432.7l-2.2-7.5h4.3L-898.8,432.7z"/>
					<path id="path4560" class="st7" d="M-898.8,372.6l-2.2-7.5h4.3L-898.8,372.6z"/>
					<path id="path4562" class="st7" d="M-898.8,312.6l-2.2-7.5h4.3L-898.8,312.6z"/>
				</g>
				<g id="g4570" transform="matrix(-1,0,0,1,383.739,0)">
					<path id="path4572" class="st7" d="M1282.5-44.5l2.2,7.5h-4.3L1282.5-44.5z"/>
					<path id="path4574" class="st7" d="M1282.5,15.5l2.2,7.5h-4.3L1282.5,15.5z"/>
					<path id="path4576" class="st7" d="M1282.5,75.6l2.2,7.5h-4.3L1282.5,75.6z"/>
					<path id="path4578" class="st7" d="M1282.5,135.6l2.2,7.5h-4.3L1282.5,135.6z"/>
				</g>
			</g>
			<g id="g4610" transform="matrix(-1,0,0,-1,382.6749,173.6566)">
				
					<text id="text429" transform="matrix(0 -1 1 0 1516.0708 205.5148)" class="st7" style="font-family:'Arial-BoldMT'; font-size:30.1161px;">10</text>
				
					<text id="text431" transform="matrix(0 -1 1 0 1516.0708 205.5148)" class="st8" style="font-family:'Arial-BoldMT'; font-size:30.1161px;">10</text>
				
					<text id="text433" transform="matrix(0 -1 1 0 1516.0708 145.4903)" class="st7" style="font-family:'Arial-BoldMT'; font-size:30.1161px;">20</text>
				
					<text id="text435" transform="matrix(0 -1 1 0 1516.0708 145.4903)" class="st8" style="font-family:'Arial-BoldMT'; font-size:30.1161px;">20</text>
				
					<text id="text437" transform="matrix(0 -1 1 0 1516.0708 85.4634)" class="st7" style="font-family:'Arial-BoldMT'; font-size:30.1161px;">30</text>
				
					<text id="text439" transform="matrix(0 -1 1 0 1516.0708 85.4634)" class="st8" style="font-family:'Arial-BoldMT'; font-size:30.1161px;">30</text>
				
					<text id="text441" transform="matrix(0 -1 1 0 1516.0708 25.4396)" class="st7" style="font-family:'Arial-BoldMT'; font-size:30.1161px;">40</text>
				
					<text id="text443" transform="matrix(0 -1 1 0 1516.0708 25.4396)" class="st8" style="font-family:'Arial-BoldMT'; font-size:30.1161px;">40</text>
				
					<text id="text445" transform="matrix(0 -1 1 0 1516.0708 -34.5849)" class="st7" style="font-family:'Arial-BoldMT'; font-size:30.1161px;">50</text>
				
					<text id="text447" transform="matrix(0 -1 1 0 1516.0708 -34.5849)" class="st8" style="font-family:'Arial-BoldMT'; font-size:30.1161px;">50</text>
				
					<text id="text449" transform="matrix(0 -1 1 0 1516.0708 -94.6089)" class="st7" style="font-family:'Arial-BoldMT'; font-size:30.1161px;">40</text>
				
					<text id="text451" transform="matrix(0 -1 1 0 1516.0708 -94.6089)" class="st8" style="font-family:'Arial-BoldMT'; font-size:30.1161px;">40</text>
				
					<text id="text453" transform="matrix(0 -1 1 0 1516.0708 -154.6338)" class="st7" style="font-family:'Arial-BoldMT'; font-size:30.1161px;">30</text>
				
					<text id="text455" transform="matrix(0 -1 1 0 1516.0708 -154.6338)" class="st8" style="font-family:'Arial-BoldMT'; font-size:30.1161px;">30</text>
				
					<text id="text457" transform="matrix(0 -1 1 0 1516.0708 -214.6586)" class="st7" style="font-family:'Arial-BoldMT'; font-size:30.1161px;">20</text>
				
					<text id="text459" transform="matrix(0 -1 1 0 1516.0708 -214.6586)" class="st8" style="font-family:'Arial-BoldMT'; font-size:30.1161px;">20</text>
				
					<text id="text461" transform="matrix(0 -1 1 0 1516.0708 -274.6841)" class="st7" style="font-family:'Arial-BoldMT'; font-size:30.1161px;">10</text>
				
					<text id="text463" transform="matrix(0 -1 1 0 1516.0708 -274.6841)" class="st8" style="font-family:'Arial-BoldMT'; font-size:30.1161px;">10</text>
				<g id="g4648">
					<path id="path4650" class="st7" d="M1504.9,215.5l-2.2-7.5h4.3L1504.9,215.5z"/>
					<path id="path4652" class="st7" d="M1504.9,155.5l-2.2-7.5h4.3L1504.9,155.5z"/>
					<path id="path4654" class="st7" d="M1504.9,95.4l-2.2-7.5h4.3L1504.9,95.4z"/>
					<path id="path4656" class="st7" d="M1504.9,35.4l-2.2-7.5h4.3L1504.9,35.4z"/>
				</g>
				<g id="g4658" transform="matrix(-1,0,0,1,383.739,0)">
					<path id="path4660" class="st7" d="M-1121.1-321.7l2.2,7.5h-4.3L-1121.1-321.7z"/>
					<path id="path4662" class="st7" d="M-1121.1-261.7l2.2,7.5h-4.3L-1121.1-261.7z"/>
					<path id="path4664" class="st7" d="M-1121.1-201.7l2.2,7.5h-4.3L-1121.1-201.7z"/>
					<path id="path4666" class="st7" d="M-1121.1-141.6l2.2,7.5h-4.3L-1121.1-141.6z"/>
				</g>
			</g>
		</g>
	</g>
</g>
<g id="layer7">
	<g id="g476">
	</g>
	<path id="path13684" d="M1514.6-884.2"/>
	<g id="g479">
	</g>
	<path id="path13684-6" d="M1514.6-382.3"/>
	<g id="g482">
	</g>
	<path id="path13614_2_" d="M723-382.1"/>
	<path id="path36210" d="M718.3-382.1"/>
	<g id="g486">
	</g>
	<path id="path36210-2" d="M797-381.7"/>
	<g id="g489">
	</g>
</g>
<radialGradient id="rect3227_1_" cx="69.2857" cy="174.6916" r="80.5577" gradientTransform="matrix(1.6071 0 0 -6.9643 772.228 760.7441)" gradientUnits="userSpaceOnUse">
	<stop  offset="0" style="stop-color:#2BC32B"/>
	<stop  offset="1" style="stop-color:#329832"/>
</radialGradient>
<rect id="rect3227" x="712.7" y="-769.1" class="st9" width="357.3" height="621.4"/>
<radialGradient id="rect3229_3_" cx="18.794" cy="282.1134" r="80.5577" gradientTransform="matrix(1.7143 0 0 -4.4679 860.0047 804.5902)" gradientUnits="userSpaceOnUse">
	<stop  offset="0" style="stop-color:#00B800"/>
	<stop  offset="1" style="stop-color:#008800"/>
</radialGradient>
<rect id="rect3229_1_" x="712.7" y="-713.5" class="st10" width="357.3" height="510.1"/>
<path id="path3231" class="st11" d="M712.7-601.3H1070"/>
<path id="path3235" class="st12" d="M729.1-644"/>
<path id="path3237" class="st11" d="M712.7-458.4H1070"/>
<path id="path4589" class="st13" d="M710.9-509.3h360.8"/>
<path id="path4619" class="st14" d="M876.5-203l38-73.4"/>
<path id="path4621" class="st14" d="M905-203l38-73.4"/>
<path id="path4627" class="st14" d="M890.3-229.7h28.5"/>
<path id="path4623" class="st12" d="M877.1-731.6h28.5"/>
<path id="path4625" class="st12" d="M877.1-760.5v47.5"/>
<path id="path4629" class="st12" d="M905.6-760.5v47.5"/>
<path id="path3241" class="st15" d="M993.2-686.3v459.2"/>
<path id="path3243" class="st15" d="M1044.5-686.3v459.2"/>
<path id="path3245" class="st15" d="M789.5-686.3v459.2"/>
<path id="path3247" class="st15" d="M738.1-686.3v459.2"/>
<path id="path3294" class="st13" d="M710.9-407.5h360.8"/>
<path id="path3239" class="st11" d="M712.7-315.6H1070"/>
<line id="line526" class="st11" x1="896.5" y1="-461.5" x2="896.5" y2="-455.5"/>
<line id="line528" class="st11" x1="1146.6" y1="-436.8" x2="1146.6" y2="-430.8"/>
<g id="Layer_1">
	<path id="rect2206" class="st16" d="M-564.3-54.9v482.6c0,51.2-37.1,92.8-82.9,92.8h-142.5c-45.8,0-82.9-41.5-82.9-92.8V-54.9
		c0-51.2,37.1-92.8,82.9-92.8h142.5C-601.4-147.7-564.3-106.1-564.3-54.9z"/>
	<path id="path2208_1_" class="st17" d="M-680.8,188.7c0,18.5-16.5,33.5-35.5,33.5s-33.1-15-33.1-33.5s15.4-33.5,34.3-33.5
		C-696.2,155.2-680.8,170.2-680.8,188.7z"/>
	<ellipse id="path2210_1_" class="st18" cx="-636.2" cy="74" rx="4.8" ry="4.7"/>
	<ellipse id="path2212_1_" class="st18" cx="-794.4" cy="74" rx="4.8" ry="4.7"/>
	<ellipse id="path2214_1_" class="st18" cx="-794.4" cy="302.9" rx="4.8" ry="4.7"/>
	<ellipse id="path2216_1_" class="st18" cx="-636.2" cy="302.9" rx="4.8" ry="4.7"/>
	<line id="path2218_1_" class="st19" x1="-569.6" y1="188.9" x2="-873" y2="189.2"/>
	<line id="path3093" class="st20" x1="-565.7" y1="54.7" x2="-870.8" y2="55"/>
	<line id="path3095" class="st20" x1="-566.1" y1="323.2" x2="-870.8" y2="323.2"/>
	<path id="path25" class="st21" d="M-792.9,3.7c-19.8,0-35.9-16.4-35.9-36.6s16.1-36.6,35.9-36.6c19.8,0,35.9,16.4,35.9,36.6
		S-773.1,3.7-792.9,3.7z M-757-41.2h8.8 M-748.3-25.4h-9.6 M-828.8-23.9h-8.8 M-829.6-42h-8"/>
	<path id="path24203" class="st22" d="M-794-26.9c-3,0-5.4-2.4-5.4-5.4s2.4-5.4,5.4-5.4s5.4,2.4,5.4,5.4S-791-26.9-794-26.9"/>
	<path id="path28" class="st21" d="M-635.8,3.7c-19.8,0-35.9-16.4-35.9-36.6s16.1-36.6,35.9-36.6s35.9,16.4,35.9,36.6
		C-600-12.7-616,3.7-635.8,3.7z M-600-41.2h8.8 M-591.2-25.4h-9.6 M-671.7-23.9h-8.8 M-672.5-42h-8"/>
	<path id="path24191" class="st22" d="M-635.8-27.2c-3,0-5.4-2.4-5.4-5.4s2.4-5.4,5.4-5.4s5.4,2.4,5.4,5.4S-632.8-27.2-635.8-27.2"
		/>
	<path id="path31" class="st21" d="M-635.8,439.9c-19.8,0-35.9-16.4-35.9-36.6s16.1-36.6,35.9-36.6s35.9,16.4,35.9,36.6
		C-600,423.5-616,439.9-635.8,439.9z M-600,395h8.8 M-591.2,410.8h-9.6 M-671.7,412.3h-8.8 M-672.5,394.2h-8"/>
	<path id="path24179" class="st22" d="M-635.8,409.2c-3,0-5.4-2.4-5.4-5.4s2.4-5.4,5.4-5.4s5.4,2.4,5.4,5.4
		S-632.8,409.2-635.8,409.2"/>
	<path id="path34" class="st21" d="M-792.9,439.9c-19.8,0-35.9-16.4-35.9-36.6s16.1-36.6,35.9-36.6c19.8,0,35.9,16.4,35.9,36.6
		S-773.1,439.9-792.9,439.9z M-757,395h8.8 M-748.3,410.8h-9.6 M-829.8,412.3h-7.8 M-829.6,394.2h-8"/>
	<path id="path24167" class="st22" d="M-794,409.2c-3,0-5.4-2.4-5.4-5.4s2.4-5.4,5.4-5.4s5.4,2.4,5.4,5.4S-791,409.2-794,409.2"/>
	<pattern  id="path14545_2_" xlink:href="#path14545_1_" patternTransform="matrix(0.1651 0 0 0.167 -26448.9316 4981.7349)">
	</pattern>
	<path id="path14545" class="st23" d="M-735.6-89.8c0,0,0.1-11,0.3-11.4c4.9-9.1,12.9-0.4,13.2-0.7c6.6-6.9,13.9-1.3,13.7,1.9
		l0.1,10.1"/>
	<path id="path39" class="st24" d="M-573.8-90.6h-289.5 M-694.5-90c0.1,38.2-54.7,39.5-54.4-0.4 M-705.4-90.1
		c-0.1,0.9,0.1,13.7,0.1,13.7l-32.3,0.2v-14.3"/>
	
		<pattern  id="path15433_2_" xlink:href="#path15433_1_" patternTransform="matrix(-0.1651 -1.300000e-03 1.300000e-03 -0.167 -36084.9492 -6800.3135)">
	</pattern>
	<path id="path15433" class="st25" d="M-705.8,460.8c0,0-0.2,11-0.4,11.4c-5,9.1-12.9,0.3-13.2,0.6c-6.7,6.9-13.9,1.2-13.6-2v-10.1"
		/>
	<path id="path43" class="st24" d="M-864,460.7l291.2,0.2 M-746.9,460.7c0.2-38.9,54.3-40.5,54.4,0.1 M-736.3,460.8
		c0.4-5.6,0.3-13.6,0.3-13.6l32.3-0.3l-0.1,13.9"/>
	<path id="path29529" class="st26" d="M-715.1,192.7c-1.3,0-2.5-0.7-3.1-1.7c-0.6-1.1-0.6-2.4,0-3.5c0.6-1.1,1.8-1.7,3.1-1.7
		c1.3,0,2.5,0.7,3.1,1.7c0.6,1.1,0.6,2.4,0,3.5C-712.6,192-713.8,192.7-715.1,192.7L-715.1,192.7z"/>
	<path id="path6578" class="st27" d="M-871.2,134.2c15.2-0.4,29.5,10,37.2,27.2s7.7,38.6,0,55.8s-21.9,27.6-37.2,27.2"/>
</g>
<g id="g556">
	<title  id="title558">Layer 1</title>
	<circle id="svg_3" class="st28" cx="-59.5" cy="182.2" r="47.8"/>
	<circle id="svg_4" class="st29" cx="-59.5" cy="182.2" r="1"/>
	<circle id="svg_5" class="st29" cx="-59.5" cy="-34.7" r="1"/>
	<circle id="svg_6" class="st29" cx="-59.5" cy="399.1" r="1"/>
	<path id="svg_7" class="st28" d="M-40.9-92.2v-5.2h-37.7v5.2H-40.9z"/>
	<path id="svg_8" class="st28" d="M-40.9,456.6v5.2h-37.7v-5.2H-40.9z"/>
	<path id="svg_9" class="st28" d="M-12.1-92.2v28.7h-95.2v-28.7H-12.1z"/>
	<path id="svg_10" class="st28" d="M-12.1,456.6v-28.8h-95.2v28.7L-12.1,456.6L-12.1,456.6z"/>
	<path id="svg_11" class="st30" d="M44.8-92.2V-6h-210.2v-86.2H44.8z"/>
	<path id="svg_12" class="st28" d="M45.4,456.6v-86.2h-210.3v86.2H45.4z"/>
	<path id="svg_13" class="st11" d="M-21.3-6c-15.9,21.1-45.9,25.4-67,9.5c-3.6-2.7-6.8-5.9-9.5-9.5H-21.3z"/>
	<path id="svg_14" class="st11" d="M-21.3,370.3c-15.9-21.1-45.9-25.4-67-9.5c-3.6,2.7-6.8,5.9-9.5,9.5H-21.3z"/>
	<path id="svg_15" class="st28" d="M113-92.2c0,2.9,2.3,5.2,5.2,5.2v-5.2H113z"/>
	<path id="svg_16" class="st28" d="M-237.2-87c2.9,0,5.2-2.3,5.2-5.2h-5.2V-87z"/>
	<path id="svg_2" class="st11" d="M118.2,182.2V-92.2h-355.4v548.8h355.4L118.2,182.2h-355.4H118.2z"/>
	<path id="svg_17" class="st28" d="M-232,456.6c0-2.9-2.3-5.2-5.2-5.2v5.2H-232z"/>
	<path id="svg_18" class="st28" d="M118.2,451.3c-2.9,0-5.2,2.3-5.2,5.2h5.2V451.3z"/>
	<line id="svg_33" class="st11" x1="118.2" y1="-92.2" x2="118.2" y2="455"/>
	<line id="svg_35" class="st11" x1="118.2" y1="-92.8" x2="-75.7" y2="-92.2"/>
</g>
<g id="g4631" transform="matrix(2.25,0,0,2.25,-528.57145,-604.73845)">
	<path id="path4595" class="st12" d="M624.7,170.3h12.7"/>
	<path id="path4591" class="st12" d="M624.7,157.5v21.1"/>
	<path id="path4593" class="st12" d="M637.3,157.5v21.1"/>
</g>
</svg>
